<svg id="icon-discord" xmlns="http://www.w3.org/2000/svg" viewBox="0 0 32 32">
  <g>
    <path d="M16.035,0 C7.194,0 0,7.192 0,16.034 C0,24.876 7.194,32.068 16.035,32.068 C24.876,32.068 32.07,24.876 32.07,16.034 C32.07,7.192 24.876,1.08246745e-15 16.035,1.08246745e-15 L16.035,0 Z M16.035,31 C7.783,31 1.07,24.286 1.07,16.034 C1.07,7.782 7.783,1.068 16.035,1.068 C24.287,1.068 31,7.782 31,16.034 C31,24.286 24.287,31 16.035,31 L16.035,31 Z"></path>
    <g transform="translate(6.000000, 8.000000)">
      <path d="M7.41,7.585 C6.555,7.585 5.88,8.335 5.88,9.25 C5.88,10.165 6.57,10.915 7.41,10.915 C8.265,10.915 8.94,10.165 8.94,9.25 C8.955,8.335 8.265,7.585 7.41,7.585 Z M12.885,7.585 C12.03,7.585 11.355,8.335 11.355,9.25 C11.355,10.165 12.045,10.915 12.885,10.915 C13.74,10.915 14.415,10.165 14.415,9.25 C14.415,8.335 13.74,7.585 12.885,7.585 Z"></path>
      <path d="M7.98,2.17 L7.83,1.99 C7.83,1.99 5.775,1.945 3.615,3.565 C3.615,3.565 1.455,7.48 1.455,12.31 C1.455,12.31 2.715,14.485 6.03,14.59 C6.03,14.59 6.585,13.915 7.035,13.345 C5.13,12.775 4.41,11.575 4.41,11.575 C4.92,11.9139262 5.775,12.325 6.12,12.46 C6.735,12.7 7.47,12.94 8.325,13.105 C9.45,13.315 10.77,13.39 12.21,13.12 C12.915,13 13.635,12.79 14.385,12.475 C14.91,12.28 15.495,11.995 16.11,11.59 C16.11,11.59 15.36,12.82 13.395,13.375 C13.845,13.945 14.385,14.59 14.385,14.59 C17.7,14.485 18.975,12.31 18.975,12.31 C18.975,7.48 16.815,3.565 16.815,3.565 C14.655,1.945 12.6,1.99 12.6,1.99 L12.39,2.23 C14.94,3.01 16.125,4.135 16.125,4.135 C14.565,3.28 13.035,2.86 11.61,2.695 C10.53,2.575 9.495,2.605 8.58,2.725 C8.49,2.725 8.415,2.74 8.325,2.755 C7.8,2.8 6.525,2.995 4.92,3.7 C4.36842593,3.95342593 4.03908265,4.13277492 4.0350377,4.13497945 C4.0423299,4.1280388 5.28793446,2.94770782 7.98,2.17 Z M12.3942885,14.1028722 C10.9537385,14.3729753 9.53679546,14.3484749 8.13551374,14.0868834 C8.01631059,14.0638793 7.89829407,14.0393865 7.78129282,14.0134145 C7.72374377,14.0861318 7.71089548,14.1022516 7.63069109,14.2028779 C7.61331103,14.2246433 7.61331103,14.2246433 7.59593068,14.2463853 C7.42213525,14.4637363 7.23635055,14.693525 7.05062323,14.9215392 C6.93920063,15.0583307 6.85239903,15.1643268 6.80242549,15.2251054 C6.60542029,15.4647063 6.3083791,15.5993189 5.99834167,15.5894987 C4.36957162,15.5379087 3.02307605,15.0461038 1.95786379,14.2546539 C1.26210611,13.7377078 0.818754725,13.2066464 0.589709935,12.8112715 C0.501468721,12.6589503 0.455,12.4860348 0.455,12.31 C0.455,10.0767126 0.880462645,7.87848889 1.58858325,5.80330211 C1.83607598,5.07801092 2.10163225,4.41854618 2.3681921,3.83606355 C2.53085292,3.48061954 2.66023283,3.22545359 2.73942232,3.08192266 C2.80781232,2.95796578 2.90174277,2.84994292 3.015,2.765 C4.04943881,1.98917089 5.14045239,1.49069971 6.22455148,1.21613101 C6.90645837,1.04342512 7.46231682,0.985846525 7.8368528,0.989999132 C7.84582426,0.990116277 7.84582426,0.990116277 7.85189256,0.990239671 C8.14095267,0.996569454 8.41312514,1.12770024 8.59822128,1.3498156 L8.74822128,1.5298156 C8.78996426,1.57990717 8.82581768,1.63238188 8.85599362,1.68654783 C9.73358087,1.59860057 10.642863,1.59440852 11.5520838,1.68355245 C11.5774284,1.64502508 11.6058487,1.60758069 11.6374233,1.57149539 L11.8474233,1.33149539 C12.0322867,1.12022297 12.2974426,0.996385615 12.5781074,0.990239671 C12.5841757,0.990116277 12.5841757,0.990116277 12.5931472,0.989999132 C12.9676832,0.985846525 13.5235416,1.04342512 14.2054485,1.21613101 C15.2895476,1.49069971 16.3805612,1.98917089 17.415,2.765 C17.5282572,2.84994292 17.6221877,2.95796578 17.6905777,3.08192266 C17.7697672,3.22545359 17.8991471,3.48061954 18.0618079,3.83606355 C18.3283677,4.41854618 18.593924,5.07801092 18.8414167,5.80330211 C19.5495374,7.87848889 19.975,10.0767126 19.975,12.31 C19.975,12.487781 19.9276053,12.6623481 19.837698,12.8157195 C19.6065547,13.2100228 19.1604614,13.7400263 18.4624422,14.2560738 C17.3931845,15.0465789 16.0447812,15.5379292 14.4166583,15.5894987 C14.1097367,15.5992202 13.8153654,15.4673892 13.6182423,15.2319367 C13.5672345,15.1710106 13.47898,15.0649452 13.3657915,14.9278015 C13.1771275,14.6992086 12.9883807,14.4679188 12.811632,14.2476843 C12.7841909,14.2134705 12.7841909,14.2134705 12.7567523,14.1791707 C12.7036159,14.11258 12.688748,14.0939475 12.6573731,14.0543434 C12.5694558,14.0718246 12.4817598,14.0879995 12.3942885,14.1028722 Z"></path>
    </g>
  </g>
</svg>