<svg id="icon-email-footer" xmlns="http://www.w3.org/2000/svg" viewBox="0 0 32 32">
  <path d="M16.035,0 C7.194,0 0,7.192 0,16.034 C0,24.876 7.194,32.068 16.035,32.068 C24.876,32.068 32.07,24.876 32.07,16.034 C32.07,7.192 24.876,1.08246745e-15 16.035,1.08246745e-15 L16.035,0 Z M16.035,31 C7.783,31 1.07,24.286 1.07,16.034 C1.07,7.782 7.783,1.068 16.035,1.068 C24.287,1.068 31,7.782 31,16.034 C31,24.286 24.287,31 16.035,31 L16.035,31 Z"></path>
  <g transform="translate(7.000000, 10.000000)">
    <path d="M16.5,0 L1.5,0 C0.673,0 0,0.673 0,1.5 L0,10.5 C0,11.327 0.673,12 1.5,12 L16.5,12 C17.327,12 18,11.327 18,10.5 L18,1.5 C18,0.673 17.327,0 16.5,0 Z M16.587,1.008 L9.555,6.029 C9.265,6.222 8.736,6.222 8.446,6.029 L1.414,1.008 C1.442,1.003 1.471,1 1.501,1 L16.501,1 C16.53,1 16.558,1.003 16.587,1.008 Z M16.5,11 L1.5,11 C1.224,11 1,10.776 1,10.5 L1,1.934 L7.891,6.861 C8.202,7.068 8.601,7.172 9,7.172 C9.399,7.172 9.798,7.068 10.109,6.861 L17,1.934 L17,10.5 C17,10.776 16.776,11 16.5,11 Z"></path>
  </g>
</svg>