<?xml version="1.0" ?><!DOCTYPE svg  PUBLIC '-//W3C//DTD SVG 1.1//EN'  'http://www.w3.org/Graphics/SVG/1.1/DTD/svg11.dtd'><svg enable-background="new 0 0 100 100" height="100px" id="Layer_1" version="1.1" viewBox="0 0 100 100" width="100px" xml:space="preserve" xmlns="http://www.w3.org/2000/svg" xmlns:xlink="http://www.w3.org/1999/xlink"><g><path d="M49.962,4.419c-25.35,0-45.974,20.624-45.974,45.974s20.624,45.974,45.974,45.974s45.974-20.624,45.974-45.974   S75.312,4.419,49.962,4.419z M49.962,94.367c-24.247,0-43.974-19.727-43.974-43.974S25.715,6.419,49.962,6.419   s43.974,19.727,43.974,43.974S74.209,94.367,49.962,94.367z"/><path d="M71.431,29.086c-0.281-0.5-0.811-0.812-1.382-0.812c-0.032,0-0.123,0.004-0.155,0.008c-6.74,0.654-9.942,2.821-11.39,4.336   c-5.496-1.312-11.588-1.312-17.084,0c-1.445-1.516-4.647-3.682-11.391-4.337c-0.031-0.003-0.119-0.007-0.15-0.007   c-0.576,0-1.107,0.312-1.389,0.817c-0.275,0.5-2.569,4.931-0.789,10.977c-3.029,3.196-4.627,6.937-4.627,10.854   c0,5.139,0.308,10.508,3.989,14.714c4.049,4.626,11.539,6.875,22.898,6.875c11.358,0,18.85-2.249,22.9-6.875   c3.68-4.206,3.987-9.575,3.987-14.714c0-3.916-1.598-7.656-4.627-10.854C74.004,34.023,71.71,29.591,71.431,29.086z M37.529,66.84   c-3.197-1.992-4.752-5.406-4.752-10.435c0-5.88,2.487-6.367,5.258-6.367c1.565,0,3.364,0.254,5.27,0.522   c2.171,0.306,4.415,0.622,6.657,0.622c2.244,0,4.487-0.316,6.657-0.622c1.905-0.269,3.704-0.522,5.27-0.522   c2.771,0,5.257,0.487,5.257,6.367c0,5.03-1.554,8.443-4.751,10.435c-2.718,1.694-6.668,2.483-12.433,2.483   C44.198,69.323,40.248,68.534,37.529,66.84z M74.85,50.922c0,4.759-0.27,9.713-3.492,13.397c-2.048,2.338-5.149,4.002-9.377,5.012   c0.521-0.242,1.011-0.506,1.473-0.794c3.83-2.387,5.692-6.355,5.692-12.132c0-7.416-3.878-8.367-7.257-8.367   c-1.705,0-3.572,0.263-5.549,0.542c-2.101,0.296-4.273,0.602-6.378,0.602c-2.103,0-4.276-0.306-6.378-0.602   c-1.977-0.279-3.844-0.542-5.549-0.542c-3.379,0-7.258,0.951-7.258,8.367c0,5.776,1.862,9.745,5.694,12.132   c0.461,0.288,0.951,0.552,1.473,0.794c-4.228-1.01-7.329-2.674-9.376-5.012c-3.225-3.684-3.494-8.638-3.494-13.397   c0-3.553,1.544-6.968,4.465-9.874c0.27-0.268,0.363-0.665,0.244-1.025c-1.646-4.939-0.126-8.745,0.336-9.723   c6.825,0.719,9.382,3.07,10.169,4.058c0.246,0.309,0.65,0.445,1.032,0.345c5.529-1.425,11.752-1.425,17.283,0   c0.382,0.098,0.785-0.037,1.031-0.345c0.79-0.989,3.355-3.348,10.17-4.06c0.463,0.979,1.982,4.786,0.337,9.725   c-0.12,0.36-0.026,0.757,0.243,1.025C73.306,43.956,74.85,47.37,74.85,50.922z"/><path d="M39.629,53.208c-2.074,0-3.698,2.117-3.698,4.819s1.624,4.819,3.698,4.819s3.699-2.117,3.699-4.819   S41.703,53.208,39.629,53.208z M39.629,60.846c-0.921,0-1.698-1.291-1.698-2.819s0.777-2.819,1.698-2.819s1.699,1.291,1.699,2.819   S40.55,60.846,39.629,60.846z"/><path d="M60.295,53.208c-2.074,0-3.698,2.117-3.698,4.819s1.624,4.819,3.698,4.819s3.699-2.117,3.699-4.819   S62.369,53.208,60.295,53.208z M60.295,60.846c-0.921,0-1.698-1.291-1.698-2.819s0.777-2.819,1.698-2.819s1.699,1.291,1.699,2.819   S61.216,60.846,60.295,60.846z"/></g></svg>