<svg id="Home" viewBox="0 0 80 80" xmlns="http://www.w3.org/2000/svg">
  <path d="M31.733,46.525l28.954,-28.954c1.185,-1.155 2.449,-1.771 4.383,-1.747c1.527,0.057 2.991,0.681 4.084,1.747l45.181,45.181c1.25,1.433 0.653,2.086 0.093,2.728c-0.718,0.823 -2.064,0.848 -2.922,0.1c-4.204,-4.205 -8.395,-8.425 -12.583,-12.647c0.018,16.792 0.113,33.584 -0.003,50.375c-0.108,5.68 -5.013,10.746 -10.858,10.857c-15.425,0.1 -30.852,0.097 -46.278,0c-5.674,-0.104 -10.752,-5.01 -10.863,-10.862l0,-50.309l-12.586,12.586c-1.584,1.381 -4.816,-0.55 -2.829,-2.828l16.109,-16.109c0.038,-0.041 0.077,-0.08 0.118,-0.118Zm63.188,2.373c-9.486,-9.564 -18.979,-19.12 -28.622,-28.524c-0.765,-0.71 -2.042,-0.697 -2.801,0.043l-28.578,28.578c-0.011,18.115 -0.339,36.233 0.003,54.345c0.108,3.551 3.223,6.712 6.824,6.824c4.211,0.077 8.423,0.12 12.635,0.139c-0.006,-7.258 -0.044,-14.515 0.002,-21.773c0.107,-5.548 4.766,-10.401 10.634,-10.363c5.408,0.101 10.261,4.711 10.365,10.364l-0.005,21.723c4.211,-0.028 8.422,-0.062 12.633,-0.089c3.632,-0.069 6.883,-3.177 6.91,-7.006l0,-54.261Zm-30.122,33.268c-3.375,0.064 -6.393,2.961 -6.416,6.506l0,21.494l13,0c0,-7.223 0.13,-14.447 -0.002,-21.669c-0.108,-3.388 -3.196,-6.352 -6.582,-6.331Z" /></svg>