<svg id="icon-reddit" xmlns="http://www.w3.org/2000/svg" viewBox="0 0 32 32">
  <g>
    <path d="M16.035,0 C7.194,0 0,7.192 0,16.034 C0,24.876 7.194,32.068 16.035,32.068 C24.876,32.068 32.07,24.876 32.07,16.034 C32.07,7.192 24.876,1.08246745e-15 16.035,1.08246745e-15 L16.035,0 Z M16.035,31 C7.783,31 1.07,24.286 1.07,16.034 C1.07,7.782 7.783,1.068 16.035,1.068 C24.287,1.068 31,7.782 31,16.034 C31,24.286 24.287,31 16.035,31 L16.035,31 Z"></path>
    <g transform="translate(7.000000, 6.500000)">
      <path d="M9.26315789,18.5 C4.36647651,18.5 0.342105263,15.6829401 0.342105263,12.1052632 C0.342105263,8.52758619 4.36647651,5.71052632 9.26315789,5.71052632 C14.1598393,5.71052632 18.1842105,8.52758619 18.1842105,12.1052632 C18.1842105,15.6829401 14.1598393,18.5 9.26315789,18.5 Z M9.26315789,17.5 C13.6681144,17.5 17.1842105,15.0387327 17.1842105,12.1052632 C17.1842105,9.1717936 13.6681144,6.71052632 9.26315789,6.71052632 C4.85820139,6.71052632 1.34210526,9.1717936 1.34210526,12.1052632 C1.34210526,15.0387327 4.85820139,17.5 9.26315789,17.5 Z"></path>
      <path d="M9.75837601,5.85845929 C9.72027631,6.13196071 9.4676737,6.3227915 9.19417229,6.2846918 C8.92067087,6.2465921 8.72984008,5.99398949 8.76793978,5.72048808 C8.84904196,5.13829025 8.91344642,4.59710851 8.97388517,4.01441066 C9.00122604,3.75081388 9.08154345,2.92315526 9.09812902,2.76521538 C9.19060566,1.88458553 9.27468253,1.49645484 9.50255512,1.18093893 C9.79320413,0.778501848 10.2091951,0.669361356 10.8681031,0.716748575 C11.1846224,0.739511947 12.7944771,0.970418531 13.0620174,1.00386106 C13.3360273,1.03811231 13.5303902,1.2880074 13.4961389,1.56201737 C13.4618877,1.83602734 13.2119926,2.03039018 12.9379826,1.99613894 C9.85274199,1.61048386 10.3975634,1.64966622 10.3132344,1.76642949 C10.2295944,1.88223861 10.1650718,2.18009955 10.0926605,2.86965304 C10.0766038,3.02255626 9.99636885,3.84936505 9.96854904,4.11757947 C9.90697474,4.7112252 9.8412162,5.2637851 9.75837601,5.85845929 Z"></path>
      <path d="M14.5,4 C13.3954305,4 12.5,3.1045695 12.5,2 C12.5,0.8954305 13.3954305,0 14.5,0 C15.6045695,0 16.5,0.8954305 16.5,2 C16.5,3.1045695 15.6045695,4 14.5,4 Z M14.5,3 C15.0522847,3 15.5,2.55228475 15.5,2 C15.5,1.44771525 15.0522847,1 14.5,1 C13.9477153,1 13.5,1.44771525 13.5,2 C13.5,2.55228475 13.9477153,3 14.5,3 Z"></path>
      <path d="M1.07759872,10.391092 C1.28973717,10.5678741 1.31839921,10.8831564 1.14161718,11.0952949 C0.96483514,11.3074333 0.649552791,11.3360954 0.437414337,11.1593133 C-0.667938676,10.2381859 -0.817282955,8.59539847 0.103844626,7.49004583 C1.0249722,6.38469319 2.6677591,6.23534878 3.77311198,7.15647613 C3.98525043,7.33325816 4.01391247,7.64854051 3.83713044,7.86067897 C3.6603484,8.07281742 3.34506605,8.10147946 3.1329276,7.92469743 C2.45185162,7.35713414 1.43962929,7.44915444 0.872065774,8.13023038 C0.304502439,8.8113061 0.396522655,9.82352869 1.07759872,10.391092 Z"></path>
      <path d="M15.4424926,7.89537614 C15.2275517,8.06873988 14.9127685,8.03503488 14.7394047,7.8200939 C14.566041,7.60515293 14.599746,7.29036975 14.814687,7.11700601 C15.9346427,6.21368954 17.5748284,6.38931045 18.4781455,7.50926646 C19.381461,8.62922189 19.2058405,10.2694083 18.085885,11.172724 C17.870944,11.3460877 17.5561608,11.3123826 17.3827971,11.0974416 C17.2094334,10.8825006 17.2431385,10.5677174 17.4580796,10.3943537 C18.1481528,9.83776546 18.2563635,8.82714537 17.6997754,8.13707207 C17.1431859,7.44699802 16.1325664,7.33878715 15.4424926,7.89537614 Z"></path>
      <path d="M5.89473684,12.1842105 C5.15351257,12.1842105 4.55263158,11.5833295 4.55263158,10.8421053 C4.55263158,10.100881 5.15351257,9.5 5.89473684,9.5 C6.63596111,9.5 7.23684211,10.100881 7.23684211,10.8421053 C7.23684211,11.5833295 6.63596111,12.1842105 5.89473684,12.1842105 Z M5.89473684,11.1842105 C6.08367636,11.1842105 6.23684211,11.0310448 6.23684211,10.8421053 C6.23684211,10.6531657 6.08367636,10.5 5.89473684,10.5 C5.70579732,10.5 5.55263158,10.6531657 5.55263158,10.8421053 C5.55263158,11.0310448 5.70579732,11.1842105 5.89473684,11.1842105 Z"></path>
      <path d="M12.2105263,12.1842105 C11.469302,12.1842105 10.8684211,11.5833295 10.8684211,10.8421053 C10.8684211,10.100881 11.469302,9.5 12.2105263,9.5 C12.9517506,9.5 13.5526316,10.100881 13.5526316,10.8421053 C13.5526316,11.5833295 12.9517506,12.1842105 12.2105263,12.1842105 Z M12.2105263,11.1842105 C12.3994658,11.1842105 12.5526316,11.0310448 12.5526316,10.8421053 C12.5526316,10.6531657 12.3994658,10.5 12.2105263,10.5 C12.0215868,10.5 11.8684211,10.6531657 11.8684211,10.8421053 C11.8684211,11.0310448 12.0215868,11.1842105 12.2105263,11.1842105 Z"></path>
      <path d="M5.58037582,14.1782887 C5.36563919,14.0046719 5.33230499,13.6898493 5.50592179,13.4751127 C5.67953858,13.260376 5.99436124,13.2270418 6.20909786,13.4006586 C6.36555579,13.5271565 6.66895645,13.7294235 7.08287302,13.933694 C8.4698962,14.6181988 9.90088929,14.7213825 11.2341224,13.8970813 C11.4532449,13.761604 11.6684437,13.6012599 11.8794274,13.4148091 C12.086349,13.2319483 12.40233,13.2514533 12.5851909,13.4583748 C12.7680517,13.6652963 12.7485467,13.9812774 12.5416252,14.1641382 C12.2885491,14.3877868 12.0278168,14.5820579 11.7600002,14.7476415 C10.0879124,15.7814471 8.30718618,15.6530454 6.64032399,14.8304383 C6.15365571,14.5902644 5.79038966,14.3480871 5.58037582,14.1782887 Z"></path>
    </g>
  </g>
</svg>